<mxfile host="app.diagrams.net" modified="2020-12-16T09:30:06.807Z" agent="5.0 (Windows NT 10.0; Win64; x64) AppleWebKit/537.36 (KHTML, like Gecko) Chrome/87.0.4280.88 Safari/537.36" etag="RQze2qJ_6IrY4gIbcI-X" version="14.0.0" type="github">
  <diagram name="Page-1" id="e7e014a7-5840-1c2e-5031-d8a46d1fe8dd">
    <mxGraphModel dx="1730" dy="3967" grid="1" gridSize="10" guides="1" tooltips="1" connect="1" arrows="1" fold="1" page="1" pageScale="1" pageWidth="1500" pageHeight="3000" background="#ffffff" math="0" shadow="0">
      <root>
        <mxCell id="0" />
        <mxCell id="1" parent="0" />
        <mxCell id="H85ItWtwwnXYT-WH__-k-42" value="" style="ellipse;fillColor=#000000;strokeColor=none;aspect=fixed;" parent="1" vertex="1">
          <mxGeometry x="1049.25" y="-2900" width="40" height="41.03" as="geometry" />
        </mxCell>
        <mxCell id="H85ItWtwwnXYT-WH__-k-43" value="نمایش منوی رستوران" style="shape=rect;html=1;rounded=1;whiteSpace=wrap;align=center;fontSize=21;fontStyle=1" parent="1" vertex="1">
          <mxGeometry x="982" y="-2690" width="174" height="70" as="geometry" />
        </mxCell>
        <mxCell id="H85ItWtwwnXYT-WH__-k-44" value="" style="endArrow=open;endFill=1;endSize=12;html=1;fontSize=21;exitX=0.5;exitY=1;exitDx=0;exitDy=0;entryX=0.5;entryY=0;entryDx=0;entryDy=0;" parent="1" source="H85ItWtwwnXYT-WH__-k-42" target="H85ItWtwwnXYT-WH__-k-51" edge="1">
          <mxGeometry width="160" relative="1" as="geometry">
            <mxPoint x="1094" y="-2530" as="sourcePoint" />
            <mxPoint x="1254" y="-2530" as="targetPoint" />
          </mxGeometry>
        </mxCell>
        <mxCell id="H85ItWtwwnXYT-WH__-k-45" value="" style="endArrow=open;endFill=1;endSize=12;html=1;fontSize=21;exitX=0.5;exitY=1;exitDx=0;exitDy=0;entryX=0.5;entryY=0;entryDx=0;entryDy=0;" parent="1" source="H85ItWtwwnXYT-WH__-k-43" target="H85ItWtwwnXYT-WH__-k-47" edge="1">
          <mxGeometry width="160" relative="1" as="geometry">
            <mxPoint x="1068.5" y="-2580" as="sourcePoint" />
            <mxPoint x="1069" y="-2530" as="targetPoint" />
          </mxGeometry>
        </mxCell>
        <mxCell id="H85ItWtwwnXYT-WH__-k-46" value="" style="endArrow=open;endFill=1;endSize=12;html=1;fontSize=21;exitX=0.5;exitY=1;exitDx=0;exitDy=0;entryX=0.5;entryY=0;entryDx=0;entryDy=0;" parent="1" source="H85ItWtwwnXYT-WH__-k-47" target="H85ItWtwwnXYT-WH__-k-63" edge="1">
          <mxGeometry width="160" relative="1" as="geometry">
            <mxPoint x="1069" y="-2450" as="sourcePoint" />
            <mxPoint x="1069" y="-2380" as="targetPoint" />
          </mxGeometry>
        </mxCell>
        <mxCell id="H85ItWtwwnXYT-WH__-k-47" value="&lt;span style=&quot;font-size: 19px&quot;&gt;تیک زدن غذای موردنظر&lt;/span&gt;" style="shape=rect;html=1;rounded=1;whiteSpace=wrap;align=center;fontSize=21;fontStyle=1" parent="1" vertex="1">
          <mxGeometry x="982" y="-2570" width="174" height="70" as="geometry" />
        </mxCell>
        <mxCell id="H85ItWtwwnXYT-WH__-k-48" value="" style="ellipse;html=1;shape=endState;fillColor=#000000;strokeColor=#000000;aspect=fixed;" parent="1" vertex="1">
          <mxGeometry x="941.25" y="-256" width="43.5" height="43.5" as="geometry" />
        </mxCell>
        <mxCell id="H85ItWtwwnXYT-WH__-k-49" value="&lt;font style=&quot;font-size: 21px&quot;&gt;کلیک کردن بر روی ثبت سفارش&lt;/font&gt;" style="shape=rect;html=1;rounded=1;whiteSpace=wrap;align=center;fontSize=21;fontStyle=1" parent="1" vertex="1">
          <mxGeometry x="982" y="-2320" width="174" height="70" as="geometry" />
        </mxCell>
        <mxCell id="H85ItWtwwnXYT-WH__-k-50" value="&lt;font style=&quot;font-size: 19px&quot;&gt;[انتخاب پرداخت آنلاین]&lt;/font&gt;" style="endArrow=open;endFill=1;endSize=12;html=1;fontSize=21;exitX=0;exitY=0.5;exitDx=0;exitDy=0;entryX=0.5;entryY=0;entryDx=0;entryDy=0;" parent="1" source="H85ItWtwwnXYT-WH__-k-59" target="H85ItWtwwnXYT-WH__-k-83" edge="1">
          <mxGeometry width="160" relative="1" as="geometry">
            <mxPoint x="982" y="-1918" as="sourcePoint" />
            <mxPoint x="704.0000000000005" y="-1876" as="targetPoint" />
            <Array as="points">
              <mxPoint x="704" y="-1918" />
            </Array>
          </mxGeometry>
        </mxCell>
        <mxCell id="H85ItWtwwnXYT-WH__-k-51" value="کلیک کردن بر روی نمایه فروش رستوران" style="shape=rect;html=1;rounded=1;whiteSpace=wrap;align=center;fontSize=21;fontStyle=1" parent="1" vertex="1">
          <mxGeometry x="982" y="-2810" width="174" height="70" as="geometry" />
        </mxCell>
        <mxCell id="H85ItWtwwnXYT-WH__-k-52" value="" style="endArrow=open;endFill=1;endSize=12;html=1;fontSize=21;exitX=0.5;exitY=1;exitDx=0;exitDy=0;entryX=0.5;entryY=0;entryDx=0;entryDy=0;" parent="1" source="H85ItWtwwnXYT-WH__-k-51" target="H85ItWtwwnXYT-WH__-k-43" edge="1">
          <mxGeometry width="160" relative="1" as="geometry">
            <mxPoint x="1079" y="-2858.9700000000003" as="sourcePoint" />
            <mxPoint x="1079" y="-2800" as="targetPoint" />
          </mxGeometry>
        </mxCell>
        <mxCell id="H85ItWtwwnXYT-WH__-k-53" value="&lt;span style=&quot;font-size: 20px&quot;&gt;نمایش نتیجه سفارش&lt;br&gt;( لیست غذا و قیمت )&lt;br&gt;&lt;/span&gt;" style="shape=rect;html=1;rounded=1;whiteSpace=wrap;align=center;fontSize=21;fontStyle=1" parent="1" vertex="1">
          <mxGeometry x="982" y="-2210" width="174" height="70" as="geometry" />
        </mxCell>
        <mxCell id="H85ItWtwwnXYT-WH__-k-54" value="&lt;font style=&quot;font-size: 21px&quot;&gt;انتخاب نوع پرداخت&lt;/font&gt;" style="shape=rect;html=1;rounded=1;whiteSpace=wrap;align=center;fontSize=21;fontStyle=1" parent="1" vertex="1">
          <mxGeometry x="982" y="-2080" width="174" height="70" as="geometry" />
        </mxCell>
        <mxCell id="H85ItWtwwnXYT-WH__-k-56" value="" style="endArrow=open;endFill=1;endSize=12;html=1;fontSize=21;exitX=0.5;exitY=1;exitDx=0;exitDy=0;entryX=0.5;entryY=0;entryDx=0;entryDy=0;" parent="1" source="H85ItWtwwnXYT-WH__-k-53" target="H85ItWtwwnXYT-WH__-k-54" edge="1">
          <mxGeometry width="160" relative="1" as="geometry">
            <mxPoint x="1449.0000000000005" y="-2200" as="sourcePoint" />
            <mxPoint x="1459" y="-2140" as="targetPoint" />
          </mxGeometry>
        </mxCell>
        <mxCell id="H85ItWtwwnXYT-WH__-k-58" value="" style="endArrow=open;endFill=1;endSize=12;html=1;fontSize=21;exitX=0.5;exitY=1;exitDx=0;exitDy=0;entryX=0.5;entryY=0;entryDx=0;entryDy=0;" parent="1" source="H85ItWtwwnXYT-WH__-k-49" target="H85ItWtwwnXYT-WH__-k-53" edge="1">
          <mxGeometry width="160" relative="1" as="geometry">
            <mxPoint x="1099.0000000000005" y="-2229" as="sourcePoint" />
            <mxPoint x="1079" y="-2110" as="targetPoint" />
          </mxGeometry>
        </mxCell>
        <mxCell id="H85ItWtwwnXYT-WH__-k-59" value="" style="rhombus;" parent="1" vertex="1">
          <mxGeometry x="1024" y="-1960" width="90" height="84" as="geometry" />
        </mxCell>
        <mxCell id="H85ItWtwwnXYT-WH__-k-62" value="" style="endArrow=open;endFill=1;endSize=12;html=1;fontSize=21;exitX=0.5;exitY=1;exitDx=0;exitDy=0;entryX=0.5;entryY=0;entryDx=0;entryDy=0;" parent="1" source="H85ItWtwwnXYT-WH__-k-54" target="H85ItWtwwnXYT-WH__-k-59" edge="1">
          <mxGeometry width="160" relative="1" as="geometry">
            <mxPoint x="1068" y="-1960" as="sourcePoint" />
            <mxPoint x="1068" y="-1890" as="targetPoint" />
          </mxGeometry>
        </mxCell>
        <mxCell id="H85ItWtwwnXYT-WH__-k-63" value="&lt;font style=&quot;font-size: 21px&quot;&gt;وارد کردن تعداد غذا&lt;/font&gt;" style="shape=rect;html=1;rounded=1;whiteSpace=wrap;align=center;fontSize=21;fontStyle=1" parent="1" vertex="1">
          <mxGeometry x="982.25" y="-2450" width="174" height="70" as="geometry" />
        </mxCell>
        <mxCell id="H85ItWtwwnXYT-WH__-k-65" value="" style="endArrow=open;endFill=1;endSize=12;html=1;fontSize=21;exitX=0.5;exitY=1;exitDx=0;exitDy=0;entryX=0.5;entryY=0;entryDx=0;entryDy=0;" parent="1" source="H85ItWtwwnXYT-WH__-k-63" target="H85ItWtwwnXYT-WH__-k-49" edge="1">
          <mxGeometry width="160" relative="1" as="geometry">
            <mxPoint x="1079" y="-2470" as="sourcePoint" />
            <mxPoint x="1079" y="-2420" as="targetPoint" />
          </mxGeometry>
        </mxCell>
        <mxCell id="H85ItWtwwnXYT-WH__-k-73" value="&lt;font style=&quot;font-size: 19px&quot;&gt;[انتخاب پرداخت نقدی]&lt;/font&gt;" style="endArrow=open;endFill=1;endSize=12;html=1;fontSize=21;entryX=0.5;entryY=0;entryDx=0;entryDy=0;exitX=0.5;exitY=1;exitDx=0;exitDy=0;" parent="1" source="H85ItWtwwnXYT-WH__-k-59" target="H85ItWtwwnXYT-WH__-k-74" edge="1">
          <mxGeometry width="160" relative="1" as="geometry">
            <mxPoint x="1120" y="-1960" as="sourcePoint" />
            <mxPoint x="1243.25" y="-1514" as="targetPoint" />
          </mxGeometry>
        </mxCell>
        <mxCell id="H85ItWtwwnXYT-WH__-k-74" value="" style="rhombus;" parent="1" vertex="1">
          <mxGeometry x="1026.25" y="-950" width="86" height="80" as="geometry" />
        </mxCell>
        <mxCell id="H85ItWtwwnXYT-WH__-k-79" value="" style="endArrow=open;endFill=1;endSize=12;html=1;fontSize=21;exitX=0.5;exitY=1;exitDx=0;exitDy=0;entryX=0.5;entryY=0;entryDx=0;entryDy=0;" parent="1" source="jWmnuL_AsLB9BscAqQFx-1" target="dOI7C4SFHiKhkWWQgYbi-30" edge="1">
          <mxGeometry width="160" relative="1" as="geometry">
            <mxPoint x="1226.25" y="-1080.9999999999998" as="sourcePoint" />
            <mxPoint x="1069.25" y="-850.0000000000005" as="targetPoint" />
            <Array as="points" />
          </mxGeometry>
        </mxCell>
        <mxCell id="H85ItWtwwnXYT-WH__-k-83" value="" style="rhombus;" parent="1" vertex="1">
          <mxGeometry x="661" y="-1770" width="86" height="80" as="geometry" />
        </mxCell>
        <mxCell id="H85ItWtwwnXYT-WH__-k-84" value="&lt;font style=&quot;font-size: 19px&quot;&gt;[اعتبار کافی]&lt;/font&gt;" style="endArrow=open;endFill=1;endSize=12;html=1;fontSize=21;exitX=0.5;exitY=1;exitDx=0;exitDy=0;entryX=0.5;entryY=0;entryDx=0;entryDy=0;" parent="1" source="H85ItWtwwnXYT-WH__-k-83" target="H85ItWtwwnXYT-WH__-k-98" edge="1">
          <mxGeometry x="-0.0369" width="160" relative="1" as="geometry">
            <mxPoint x="661" y="-1730" as="sourcePoint" />
            <mxPoint x="930" y="-1120" as="targetPoint" />
            <mxPoint as="offset" />
          </mxGeometry>
        </mxCell>
        <mxCell id="H85ItWtwwnXYT-WH__-k-85" value="[&lt;font style=&quot;font-size: 19px&quot;&gt;عدم وجود اعتبار کافی در کیف پول]&lt;/font&gt;" style="endArrow=open;endFill=1;endSize=12;html=1;fontSize=21;exitX=0;exitY=0.5;exitDx=0;exitDy=0;" parent="1" source="H85ItWtwwnXYT-WH__-k-83" edge="1">
          <mxGeometry x="-0.2011" width="160" relative="1" as="geometry">
            <mxPoint x="293" y="-1710" as="sourcePoint" />
            <mxPoint x="373" y="-1640" as="targetPoint" />
            <Array as="points">
              <mxPoint x="373" y="-1730" />
            </Array>
            <mxPoint x="1" as="offset" />
          </mxGeometry>
        </mxCell>
        <mxCell id="H85ItWtwwnXYT-WH__-k-92" value="&lt;font style=&quot;font-size: 21px&quot;&gt;نمایش پیام عدم وجود اعتبار کافی در کیف پول&lt;/font&gt;&lt;span style=&quot;font-size: 19px&quot;&gt;&lt;br&gt;&lt;/span&gt;" style="shape=rect;html=1;rounded=1;whiteSpace=wrap;align=center;fontSize=21;fontStyle=1" parent="1" vertex="1">
          <mxGeometry x="293" y="-1640" width="174" height="70" as="geometry" />
        </mxCell>
        <mxCell id="H85ItWtwwnXYT-WH__-k-97" value="" style="endArrow=open;endFill=1;endSize=12;html=1;fontSize=21;exitX=0.5;exitY=1;exitDx=0;exitDy=0;entryX=0;entryY=0.5;entryDx=0;entryDy=0;" parent="1" source="dOI7C4SFHiKhkWWQgYbi-3" target="dOI7C4SFHiKhkWWQgYbi-7" edge="1">
          <mxGeometry width="160" relative="1" as="geometry">
            <mxPoint x="377.0000000000002" y="-1570.0000000000005" as="sourcePoint" />
            <mxPoint x="416" y="-1500" as="targetPoint" />
          </mxGeometry>
        </mxCell>
        <mxCell id="H85ItWtwwnXYT-WH__-k-98" value="" style="rhombus;" parent="1" vertex="1">
          <mxGeometry x="661" y="-1150" width="86" height="80" as="geometry" />
        </mxCell>
        <mxCell id="H85ItWtwwnXYT-WH__-k-101" value="&lt;font style=&quot;font-size: 21px&quot;&gt;بازگشت به صفحه اصلی&lt;/font&gt;" style="shape=rect;html=1;rounded=1;whiteSpace=wrap;align=center;fontSize=21;fontStyle=1" parent="1" vertex="1">
          <mxGeometry x="982" y="-546" width="174" height="70" as="geometry" />
        </mxCell>
        <mxCell id="H85ItWtwwnXYT-WH__-k-106" value="" style="endArrow=open;endFill=1;endSize=12;html=1;fontSize=21;exitX=0.5;exitY=1;exitDx=0;exitDy=0;entryX=1;entryY=0.5;entryDx=0;entryDy=0;" parent="1" source="H85ItWtwwnXYT-WH__-k-101" target="9EJCc1OycK-AaYbKdY1B-1" edge="1">
          <mxGeometry width="160" relative="1" as="geometry">
            <mxPoint x="1079" y="-588.0000000000005" as="sourcePoint" />
            <mxPoint x="1110" y="-356" as="targetPoint" />
            <Array as="points">
              <mxPoint x="1069" y="-376" />
            </Array>
          </mxGeometry>
        </mxCell>
        <mxCell id="dOI7C4SFHiKhkWWQgYbi-3" value="&lt;font style=&quot;font-size: 21px&quot;&gt;نمایش درگاه پرداخت بانکی&lt;/font&gt;&lt;span style=&quot;font-size: 19px&quot;&gt;&lt;br&gt;&lt;/span&gt;" style="shape=rect;html=1;rounded=1;whiteSpace=wrap;align=center;fontSize=21;fontStyle=1" parent="1" vertex="1">
          <mxGeometry x="293" y="-1520" width="174" height="70" as="geometry" />
        </mxCell>
        <mxCell id="dOI7C4SFHiKhkWWQgYbi-4" value="" style="endArrow=open;endFill=1;endSize=12;html=1;fontSize=21;exitX=0.5;exitY=1;exitDx=0;exitDy=0;" parent="1" source="H85ItWtwwnXYT-WH__-k-92" target="dOI7C4SFHiKhkWWQgYbi-3" edge="1">
          <mxGeometry width="160" relative="1" as="geometry">
            <mxPoint x="380" y="-1570" as="sourcePoint" />
            <mxPoint x="416" y="-1500" as="targetPoint" />
            <Array as="points" />
          </mxGeometry>
        </mxCell>
        <mxCell id="dOI7C4SFHiKhkWWQgYbi-7" value="" style="rhombus;direction=south;" parent="1" vertex="1">
          <mxGeometry x="338" y="-1390" width="84" height="80" as="geometry" />
        </mxCell>
        <mxCell id="dOI7C4SFHiKhkWWQgYbi-8" value="&lt;font style=&quot;font-size: 18px&quot;&gt;[واریز موفق]&lt;/font&gt;" style="endArrow=open;endFill=1;endSize=12;html=1;fontSize=21;exitX=0.5;exitY=0;exitDx=0;exitDy=0;entryX=0.5;entryY=0;entryDx=0;entryDy=0;" parent="1" source="dOI7C4SFHiKhkWWQgYbi-7" target="jWmnuL_AsLB9BscAqQFx-4" edge="1">
          <mxGeometry x="0.4894" width="160" relative="1" as="geometry">
            <mxPoint x="1214" y="-1240" as="sourcePoint" />
            <mxPoint x="1054" y="-1160" as="targetPoint" />
            <Array as="points">
              <mxPoint x="557" y="-1350" />
            </Array>
            <mxPoint as="offset" />
          </mxGeometry>
        </mxCell>
        <mxCell id="dOI7C4SFHiKhkWWQgYbi-11" value="&lt;font style=&quot;font-size: 21px&quot;&gt;بازگشت به نمایه فروش رستوران&lt;/font&gt;&lt;span style=&quot;font-size: 19px&quot;&gt;&lt;br&gt;&lt;/span&gt;" style="shape=rect;html=1;rounded=1;whiteSpace=wrap;align=center;fontSize=21;fontStyle=1" parent="1" vertex="1">
          <mxGeometry x="110" y="-890" width="174" height="70" as="geometry" />
        </mxCell>
        <mxCell id="dOI7C4SFHiKhkWWQgYbi-17" value="" style="endArrow=open;endFill=1;endSize=12;html=1;fontSize=21;entryX=0;entryY=0.5;entryDx=0;entryDy=0;exitX=0.5;exitY=1;exitDx=0;exitDy=0;" parent="1" source="dOI7C4SFHiKhkWWQgYbi-11" target="9EJCc1OycK-AaYbKdY1B-1" edge="1">
          <mxGeometry width="160" relative="1" as="geometry">
            <mxPoint x="260" y="-900" as="sourcePoint" />
            <mxPoint x="185" y="-512" as="targetPoint" />
            <Array as="points">
              <mxPoint x="197" y="-376" />
            </Array>
          </mxGeometry>
        </mxCell>
        <mxCell id="dOI7C4SFHiKhkWWQgYbi-19" value="" style="endArrow=open;endFill=1;endSize=12;html=1;fontSize=21;entryX=0;entryY=0.5;entryDx=0;entryDy=0;exitX=0.5;exitY=1;exitDx=0;exitDy=0;" parent="1" source="jWmnuL_AsLB9BscAqQFx-5" target="H85ItWtwwnXYT-WH__-k-74" edge="1">
          <mxGeometry width="160" relative="1" as="geometry">
            <mxPoint x="710" y="-890" as="sourcePoint" />
            <mxPoint x="697" y="-1042" as="targetPoint" />
            <Array as="points">
              <mxPoint x="704" y="-910" />
            </Array>
          </mxGeometry>
        </mxCell>
        <mxCell id="dOI7C4SFHiKhkWWQgYbi-30" value="&lt;font style=&quot;font-size: 21px&quot;&gt;نمایش پیام ثبت موفقیت آمیز سفارش&lt;/font&gt;" style="shape=rect;html=1;rounded=1;whiteSpace=wrap;align=center;fontSize=21;fontStyle=1" parent="1" vertex="1">
          <mxGeometry x="982" y="-686" width="174" height="70" as="geometry" />
        </mxCell>
        <mxCell id="dOI7C4SFHiKhkWWQgYbi-31" value="" style="endArrow=open;endFill=1;endSize=12;html=1;fontSize=21;exitX=0.5;exitY=1;exitDx=0;exitDy=0;entryX=0.5;entryY=0;entryDx=0;entryDy=0;" parent="1" source="dOI7C4SFHiKhkWWQgYbi-30" target="H85ItWtwwnXYT-WH__-k-101" edge="1">
          <mxGeometry width="160" relative="1" as="geometry">
            <mxPoint x="1559.25" y="-750" as="sourcePoint" />
            <mxPoint x="1549" y="-575.9999999999995" as="targetPoint" />
            <Array as="points" />
          </mxGeometry>
        </mxCell>
        <mxCell id="9EJCc1OycK-AaYbKdY1B-1" value="" style="rhombus;" parent="1" vertex="1">
          <mxGeometry x="920" y="-416" width="86" height="80" as="geometry" />
        </mxCell>
        <mxCell id="mgqdYx7QJIfKJE_YDmIQ-2" value="&lt;font style=&quot;font-size: 21px&quot;&gt;نمایش پیام موفقیت آمیز نبودن سفارش&lt;/font&gt;" style="shape=rect;html=1;rounded=1;whiteSpace=wrap;align=center;fontSize=21;fontStyle=1" parent="1" vertex="1">
          <mxGeometry x="110" y="-1130" width="174" height="70" as="geometry" />
        </mxCell>
        <mxCell id="9EJCc1OycK-AaYbKdY1B-2" value="" style="endArrow=open;endFill=1;endSize=12;html=1;fontSize=21;exitX=0.5;exitY=1;exitDx=0;exitDy=0;entryX=0.5;entryY=0;entryDx=0;entryDy=0;" parent="1" source="9EJCc1OycK-AaYbKdY1B-1" target="H85ItWtwwnXYT-WH__-k-48" edge="1">
          <mxGeometry width="160" relative="1" as="geometry">
            <mxPoint x="1096" y="-546.9999999999998" as="sourcePoint" />
            <mxPoint x="938.75" y="-274" as="targetPoint" />
            <Array as="points" />
          </mxGeometry>
        </mxCell>
        <mxCell id="mgqdYx7QJIfKJE_YDmIQ-3" value="&lt;font style=&quot;font-size: 18px&quot;&gt;&lt;font style=&quot;font-size: 18px&quot;&gt;&amp;nbsp;انصراف&lt;/font&gt; &lt;font style=&quot;font-size: 18px&quot;&gt;از پراخت یا عدم واریز]&lt;br&gt;[ (...موفق (موجودی ناکافی حساب بانکی و&lt;/font&gt;&lt;/font&gt;" style="endArrow=open;endFill=1;endSize=12;html=1;fontSize=21;exitX=0.5;exitY=1;exitDx=0;exitDy=0;entryX=0.5;entryY=0;entryDx=0;entryDy=0;" parent="1" source="dOI7C4SFHiKhkWWQgYbi-7" target="mgqdYx7QJIfKJE_YDmIQ-2" edge="1">
          <mxGeometry x="0.0582" width="160" relative="1" as="geometry">
            <mxPoint x="818" y="-1240" as="sourcePoint" />
            <mxPoint x="677" y="-760" as="targetPoint" />
            <Array as="points">
              <mxPoint x="197" y="-1350" />
            </Array>
            <mxPoint as="offset" />
          </mxGeometry>
        </mxCell>
        <mxCell id="9EJCc1OycK-AaYbKdY1B-4" value="&lt;font size=&quot;1&quot;&gt;&lt;b style=&quot;font-size: 42px&quot;&gt;سفارش غذا&lt;/b&gt;&lt;/font&gt;" style="text;html=1;align=center;verticalAlign=middle;resizable=0;points=[];autosize=1;" parent="1" vertex="1">
          <mxGeometry x="158" y="-2910" width="180" height="30" as="geometry" />
        </mxCell>
        <mxCell id="mgqdYx7QJIfKJE_YDmIQ-5" value="" style="endArrow=open;endFill=1;endSize=12;html=1;exitX=0.5;exitY=1;exitDx=0;exitDy=0;" parent="1" source="mgqdYx7QJIfKJE_YDmIQ-2" target="dOI7C4SFHiKhkWWQgYbi-11" edge="1">
          <mxGeometry width="160" relative="1" as="geometry">
            <mxPoint x="1130" y="-820" as="sourcePoint" />
            <mxPoint x="1290" y="-820" as="targetPoint" />
          </mxGeometry>
        </mxCell>
        <mxCell id="jWmnuL_AsLB9BscAqQFx-1" value="&lt;font style=&quot;font-size: 21px&quot;&gt;ثبت سفارش&lt;/font&gt;" style="shape=rect;html=1;rounded=1;whiteSpace=wrap;align=center;fontSize=21;fontStyle=1" vertex="1" parent="1">
          <mxGeometry x="982.25" y="-816" width="174" height="70" as="geometry" />
        </mxCell>
        <mxCell id="jWmnuL_AsLB9BscAqQFx-2" value="" style="endArrow=open;endFill=1;endSize=12;html=1;fontSize=21;exitX=0.5;exitY=1;exitDx=0;exitDy=0;entryX=0.5;entryY=0;entryDx=0;entryDy=0;" edge="1" parent="1" source="H85ItWtwwnXYT-WH__-k-74" target="jWmnuL_AsLB9BscAqQFx-1">
          <mxGeometry width="160" relative="1" as="geometry">
            <mxPoint x="1079.25" y="-860" as="sourcePoint" />
            <mxPoint x="1079.25" y="-716" as="targetPoint" />
            <Array as="points" />
          </mxGeometry>
        </mxCell>
        <mxCell id="jWmnuL_AsLB9BscAqQFx-3" value="" style="endArrow=open;endFill=1;endSize=12;html=1;fontSize=21;exitX=0.5;exitY=1;exitDx=0;exitDy=0;entryX=0;entryY=0.5;entryDx=0;entryDy=0;" edge="1" parent="1" source="jWmnuL_AsLB9BscAqQFx-4" target="H85ItWtwwnXYT-WH__-k-98">
          <mxGeometry width="160" relative="1" as="geometry">
            <mxPoint x="454.0000000000002" y="-1250.0000000000005" as="sourcePoint" />
            <mxPoint x="457" y="-1070" as="targetPoint" />
            <Array as="points">
              <mxPoint x="557" y="-1110" />
            </Array>
          </mxGeometry>
        </mxCell>
        <mxCell id="jWmnuL_AsLB9BscAqQFx-4" value="&lt;font style=&quot;font-size: 21px&quot;&gt;شارژ کیف پول&lt;/font&gt;&lt;span style=&quot;font-size: 19px&quot;&gt;&lt;br&gt;&lt;/span&gt;" style="shape=rect;html=1;rounded=1;whiteSpace=wrap;align=center;fontSize=21;fontStyle=1" vertex="1" parent="1">
          <mxGeometry x="470" y="-1250" width="174" height="70" as="geometry" />
        </mxCell>
        <mxCell id="jWmnuL_AsLB9BscAqQFx-5" value="&lt;font style=&quot;font-size: 21px&quot;&gt;پرداخت از کیف پول&lt;/font&gt;&lt;span style=&quot;font-size: 19px&quot;&gt;&lt;br&gt;&lt;/span&gt;" style="shape=rect;html=1;rounded=1;whiteSpace=wrap;align=center;fontSize=21;fontStyle=1" vertex="1" parent="1">
          <mxGeometry x="617" y="-1020" width="174" height="70" as="geometry" />
        </mxCell>
        <mxCell id="jWmnuL_AsLB9BscAqQFx-6" value="" style="endArrow=open;endFill=1;endSize=12;html=1;fontSize=21;entryX=0.5;entryY=0;entryDx=0;entryDy=0;exitX=0.5;exitY=1;exitDx=0;exitDy=0;" edge="1" parent="1" source="H85ItWtwwnXYT-WH__-k-98" target="jWmnuL_AsLB9BscAqQFx-5">
          <mxGeometry width="160" relative="1" as="geometry">
            <mxPoint x="704" y="-1090" as="sourcePoint" />
            <mxPoint x="1026.25" y="-984" as="targetPoint" />
            <Array as="points" />
          </mxGeometry>
        </mxCell>
      </root>
    </mxGraphModel>
  </diagram>
</mxfile>
